<mxfile host="app.diagrams.net" modified="2024-01-10T01:53:26.959Z" agent="Mozilla/5.0 (Windows NT 10.0; Win64; x64; rv:121.0) Gecko/20100101 Firefox/121.0" etag="uNGqk_JDcozIZG-2T9Yq" version="22.1.17" type="device">
  <diagram name="PÃ¡gina-1" id="oM4NrAtvXr0_JtJRRIe0">
    <mxGraphModel dx="1194" dy="716" grid="1" gridSize="10" guides="1" tooltips="1" connect="1" arrows="1" fold="1" page="1" pageScale="1" pageWidth="827" pageHeight="1169" math="0" shadow="0">
      <root>
        <mxCell id="0" />
        <mxCell id="1" parent="0" />
        <mxCell id="Qz9yoWyKzJVpS7tjnell-1" value="APPLICATION" style="rounded=1;whiteSpace=wrap;html=1;strokeWidth=4;fillColor=#dae8fc;strokeColor=#6c8ebf;fontSize=16;fontStyle=1" vertex="1" parent="1">
          <mxGeometry x="40" y="80" width="250" height="120" as="geometry" />
        </mxCell>
        <mxCell id="Qz9yoWyKzJVpS7tjnell-2" value="APPLICATION" style="rounded=1;whiteSpace=wrap;html=1;strokeWidth=4;fillColor=#dae8fc;strokeColor=#6c8ebf;fontSize=16;fontStyle=1" vertex="1" parent="1">
          <mxGeometry x="440" y="80" width="250" height="120" as="geometry" />
        </mxCell>
        <mxCell id="Qz9yoWyKzJVpS7tjnell-4" value="GUEST OS" style="rounded=1;whiteSpace=wrap;html=1;strokeWidth=4;fillColor=#f8cecc;strokeColor=#b85450;fontSize=16;fontStyle=1" vertex="1" parent="1">
          <mxGeometry x="40" y="210" width="250" height="120" as="geometry" />
        </mxCell>
        <mxCell id="Qz9yoWyKzJVpS7tjnell-5" value="GUEST OS" style="rounded=1;whiteSpace=wrap;html=1;strokeWidth=4;fillColor=#f8cecc;strokeColor=#b85450;fontSize=16;fontStyle=1" vertex="1" parent="1">
          <mxGeometry x="440" y="210" width="250" height="120" as="geometry" />
        </mxCell>
        <mxCell id="Qz9yoWyKzJVpS7tjnell-6" value="VM 01" style="text;html=1;strokeColor=none;fillColor=none;align=center;verticalAlign=middle;whiteSpace=wrap;rounded=0;fontSize=16;fontStyle=1" vertex="1" parent="1">
          <mxGeometry x="130" y="20" width="60" height="30" as="geometry" />
        </mxCell>
        <mxCell id="Qz9yoWyKzJVpS7tjnell-7" value="VM 02" style="text;html=1;strokeColor=none;fillColor=none;align=center;verticalAlign=middle;whiteSpace=wrap;rounded=0;fontSize=16;fontStyle=1" vertex="1" parent="1">
          <mxGeometry x="535" y="20" width="60" height="30" as="geometry" />
        </mxCell>
        <mxCell id="Qz9yoWyKzJVpS7tjnell-9" value="HYPERVISOR" style="rounded=1;whiteSpace=wrap;html=1;strokeWidth=4;fillColor=#b1ddf0;strokeColor=#10739e;fontSize=16;fontStyle=1" vertex="1" parent="1">
          <mxGeometry x="40" y="340" width="650" height="80" as="geometry" />
        </mxCell>
        <mxCell id="Qz9yoWyKzJVpS7tjnell-10" value="APPLICATION" style="rounded=1;whiteSpace=wrap;html=1;strokeWidth=4;fillColor=#dae8fc;strokeColor=#6c8ebf;fontSize=16;fontStyle=1" vertex="1" parent="1">
          <mxGeometry x="710" y="340" width="290" height="80" as="geometry" />
        </mxCell>
        <mxCell id="Qz9yoWyKzJVpS7tjnell-11" value="HOST OS" style="rounded=1;whiteSpace=wrap;html=1;strokeWidth=4;fillColor=#f8cecc;strokeColor=#b85450;fontSize=16;fontStyle=1" vertex="1" parent="1">
          <mxGeometry x="40" y="440" width="960" height="80" as="geometry" />
        </mxCell>
        <mxCell id="Qz9yoWyKzJVpS7tjnell-12" value="HARDWARE" style="rounded=1;whiteSpace=wrap;html=1;strokeWidth=4;fillColor=#647687;strokeColor=#314354;fontSize=16;fontStyle=1;fontColor=#ffffff;" vertex="1" parent="1">
          <mxGeometry x="40" y="545" width="960" height="80" as="geometry" />
        </mxCell>
      </root>
    </mxGraphModel>
  </diagram>
</mxfile>
